<?xml version="1.0" standalone="no"?><!DOCTYPE svg PUBLIC "-//W3C//DTD SVG 1.1//EN" "http://www.w3.org/Graphics/SVG/1.1/DTD/svg11.dtd"><svg t="1680964550964" class="icon" viewBox="0 0 1024 1024" version="1.1" xmlns="http://www.w3.org/2000/svg" p-id="2844" xmlns:xlink="http://www.w3.org/1999/xlink" width="200" height="200"><path d="M739.712 707.712l100-37.342s-8.782-116.592-11.032-116.966c-2.28-0.374-82.28-141.684-82.28-141.684l-175.996-87.998-101.34-18.688-121.342 54.688-111.998 115.996-43.718 186.652 81.06 22.656 6.656-106.654 38.686-99.998 93.31-67.998 96.686-11.25 97.998 5.906 71.998 60 61.31 94.684v147.996z" fill="#A0D468" p-id="2845"></path><path d="M921.054 661.028l-8-81.312-40-141.34-53.342-71.248-96-88.748-162.652-49.342h-67.996l-79.998 14.686-94.654 38.656-62.406 27.998-63.998 80-62.936 130.654-33.344 81.34 65.344 68 30.936-61.876 27.718-115.464 79.998-119.716 114.686-52.28 155.994-13.314 122.654 59.406 74.936 47.248 50.406 96 21.312 89.338v70.658z" fill="#FC6E51" p-id="2846"></path><path d="M306.38 686.214a212.268 212.268 0 0 1-7.718-56.876C298.662 511.686 394.348 416 512 416c117.624 0 213.306 95.686 213.306 213.338a212.36 212.36 0 0 1-7.718 56.876h44a254.834 254.834 0 0 0 6.406-56.876c0-141.184-114.84-256.024-255.994-256.024-141.184 0-255.994 114.84-255.994 256.024a254.84 254.84 0 0 0 6.376 56.876h43.998z" fill="#5D9CEC" p-id="2847"></path><path d="M218.726 686.214a301.466 301.466 0 0 1-5.406-56.876c0-79.78 31.062-154.778 87.466-211.212C357.222 361.722 432.222 330.66 512 330.66c79.748 0 154.746 31.062 211.182 87.466 56.406 56.436 87.468 131.434 87.468 211.212 0 19.312-1.844 38.312-5.406 56.876h43.376a346.856 346.856 0 0 0 4.688-56.876c0-91.184-35.5-176.9-99.968-241.368-64.466-64.468-150.184-99.966-241.338-99.966-91.184 0-176.902 35.498-241.37 99.966-64.466 64.466-99.966 150.184-99.966 241.368 0 19.25 1.592 38.25 4.718 56.876h43.342z" fill="#FFCE54" p-id="2848"></path><path d="M132.166 686.214c-2.782-18.656-4.156-37.656-4.156-56.876 0-102.59 39.936-199.026 112.466-271.554 72.498-72.498 168.934-112.466 271.524-112.466 102.56 0 198.994 39.968 271.494 112.466 72.53 72.53 112.498 168.964 112.498 271.554 0 19.218-1.406 38.218-4.188 56.876h43.062a429.288 429.288 0 0 0 3.782-56.876c0-113.964-44.376-221.12-124.966-301.71-80.594-80.592-187.746-124.964-301.682-124.964-113.964 0-221.12 44.374-301.712 124.964-80.59 80.592-124.964 187.748-124.964 301.712 0 19.188 1.282 38.156 3.782 56.876h43.06z" fill="#ED5564" p-id="2849"></path><path d="M298.662 650.652H252.1c-8.968-24.532-32.624-42.156-60.092-42.156-13.282 0-25.874 4.032-36.436 11.344-15-7.782-31.656-11.844-48.906-11.844-58.812 0-106.654 47.844-106.654 106.654s47.842 106.686 106.654 106.686h191.996c47.03 0 85.342-38.282 85.342-85.342s-38.312-85.342-85.342-85.342zM917.304 607.996c-17.25 0-33.876 4.062-48.906 11.844a63.744 63.744 0 0 0-36.404-11.344c-27.5 0-51.156 17.624-60.124 42.156h-46.562c-47.06 0-85.308 38.282-85.308 85.342s38.248 85.342 85.308 85.342h191.998c58.81 0 106.684-47.876 106.684-106.686s-47.874-106.654-106.686-106.654z" fill="#E6E9ED" p-id="2850"></path></svg>